<?xml version="1.0" encoding="UTF-8"?>
<svg version="1.1" xmlns="http://www.w3.org/2000/svg" width="102" height="58">
<path d="M0 0 C33.66 0 67.32 0 102 0 C102 19.14 102 38.28 102 58 C68.34 58 34.68 58 0 58 C0 38.86 0 19.72 0 0 Z " fill="#F9FAFA" transform="translate(0,0)"/>
<path d="M0 0 C0 3.63 0 7.26 0 11 C-1.65 11.33 -3.3 11.66 -5 12 C-7.7700997 13.96509909 -7.7700997 13.96509909 -10 16 C-8.02 15.67 -6.04 15.34 -4 15 C-4 14.34 -4 13.68 -4 13 C-3.34 13 -2.68 13 -2 13 C-3.15173355 15.46800047 -4.04783565 17.04783565 -6 19 C-9.375 19.375 -9.375 19.375 -13 19 C-15.4375 17 -15.4375 17 -17 15 C-16.01 14.34 -15.02 13.68 -14 13 C-11.18731921 10.77069744 -11.18731921 10.77069744 -9 8 C-9.04979584 5.239835 -9.04979584 5.239835 -10 3 C-3.375 0 -3.375 0 0 0 Z " fill="#0C79F9" transform="translate(23,18)"/>
<path d="M0 0 C0.66 0 1.32 0 2 0 C2 0.99 2 1.98 2 3 C2.7425 3 3.485 3 4.25 3 C6.5 3 8.75 3 11 3 C12.67225729 2.69595322 14.34080104 2.36871088 16 2 C16 2.99 16 3.98 16 5 C15.34 4.67 14.68 4.34 14 4 C14 4.99 14 5.98 14 7 C14.99 6.67 15.98 6.34 17 6 C17 6.66 17 7.32 17 8 C16.14535156 7.98839844 15.29070312 7.97679687 14.41015625 7.96484375 C13.30542969 7.95582031 12.20070313 7.94679688 11.0625 7.9375 C9.40927734 7.92009766 9.40927734 7.92009766 7.72265625 7.90234375 C5.08552366 7.68737429 5.08552366 7.68737429 4 9 C1.32941149 9.14115161 -1.32432238 9.04247107 -4 9 C-4 8.01 -4 7.02 -4 6 C-3.34 6.33 -2.68 6.66 -2 7 C-2 6.01 -2 5.02 -2 4 C-2.99 3.67 -3.98 3.34 -5 3 C-4.01 2.67 -3.02 2.34 -2 2 C-1.34 2.33 -0.68 2.66 0 3 C0 2.01 0 1.02 0 0 Z " fill="#464546" transform="translate(54,24)"/>
<path d="M0 0 C0.53625 0.515625 1.0725 1.03125 1.625 1.5625 C4.00496499 3.32605545 4.00496499 3.32605545 7.25 2.6875 C8.1575 2.460625 9.065 2.23375 10 2 C10 1.34 10 0.68 10 0 C10.66 0 11.32 0 12 0 C10.84826645 2.46800047 9.95216435 4.04783565 8 6 C4.625 6.375 4.625 6.375 1 6 C-1.4375 4 -1.4375 4 -3 2 C-2.01 1.34 -1.02 0.68 0 0 Z " fill="#1673F9" transform="translate(9,31)"/>
<path d="M0 0 C0.66 0 1.32 0 2 0 C2 0.66 2 1.32 2 2 C5.32534757 3.10844919 7.62182575 2.84454356 11 2 C11.33 2.66 11.66 3.32 12 4 C9.26094655 5.36952673 7.02912668 5.12621361 4 5 C3.34 4.67 2.68 4.34 2 4 C2 4.99 2 5.98 2 7 C2.99 6.67 3.98 6.34 5 6 C5 6.66 5 7.32 5 8 C3.35 8 1.7 8 0 8 C0 5.36 0 2.72 0 0 Z " fill="#363636" transform="translate(27,24)"/>
<path d="M0 0 C0.66 0.33 1.32 0.66 2 1 C1.67 3.31 1.34 5.62 1 8 C1.99 8.33 2.98 8.66 4 9 C1.36 9 -1.28 9 -4 9 C-4 8.01 -4 7.02 -4 6 C-3.34 6.33 -2.68 6.66 -2 7 C-2 6.01 -2 5.02 -2 4 C-2.99 3.67 -3.98 3.34 -5 3 C-4.01 2.67 -3.02 2.34 -2 2 C-1.34 2.33 -0.68 2.66 0 3 C0 2.01 0 1.02 0 0 Z " fill="#6C6C6C" transform="translate(54,24)"/>
<path d="M0 0 C2.64 0.33 5.28 0.66 8 1 C8 2.65 8 4.3 8 6 C7.67 4.68 7.34 3.36 7 2 C6.34 2 5.68 2 5 2 C4.67 3.32 4.34 4.64 4 6 C4 4.68 4 3.36 4 2 C3.34 2 2.68 2 2 2 C2 3.32 2 4.64 2 6 C0.02 6 -1.96 6 -4 6 C-3.67 5.01 -3.34 4.02 -3 3 C-2.34 3 -1.68 3 -1 3 C-0.67 2.01 -0.34 1.02 0 0 Z " fill="#2C2B2C" transform="translate(40,26)"/>
<path d="M0 0 C2.475 0.495 2.475 0.495 5 1 C4.67 2.65 4.34 4.3 4 6 C3.01 6 2.02 6 1 6 C0.67 6.66 0.34 7.32 0 8 C0 5.36 0 2.72 0 0 Z " fill="#3E8BF9" transform="translate(90,24)"/>
<path d="M0 0 C1.485 0.99 1.485 0.99 3 2 C3.99 1.34 4.98 0.68 6 0 C5.814375 0.763125 5.62875 1.52625 5.4375 2.3125 C4.77180827 5.08967375 4.77180827 5.08967375 6 8 C2 8 2 8 0 7 C0.2784375 6.1028125 0.2784375 6.1028125 0.5625 5.1875 C1.22093687 2.83591238 1.22093687 2.83591238 0 0 Z " fill="#1C71F8" transform="translate(82,24)"/>
<path d="M0 0 C0 1.98 0 3.96 0 6 C-0.66 6 -1.32 6 -2 6 C-2 4.68 -2 3.36 -2 2 C-2.99 2.495 -2.99 2.495 -4 3 C-4 3.99 -4 4.98 -4 6 C-4.99 5.67 -5.98 5.34 -7 5 C-7 3.35 -7 1.7 -7 0 C-2.25 -1.125 -2.25 -1.125 0 0 Z " fill="#282828" transform="translate(80,26)"/>
<path d="M0 0 C0.66 0.33 1.32 0.66 2 1 C2 1.66 2 2.32 2 3 C1.34 3 0.68 3 0 3 C0 3.66 0 4.32 0 5 C-3.13498292 6.85776765 -5.37471432 7.20140476 -9 7 C-8.01 6.34 -7.02 5.68 -6 5 C-3.96864317 3.36898357 -1.99068127 1.68101974 0 0 Z " fill="#E2EEFB" transform="translate(19,28)"/>
<path d="M0 0 C1.5625 1.25 1.5625 1.25 3 3 C2.6875 5.1875 2.6875 5.1875 2 7 C1.34 7 0.68 7 0 7 C0 7.66 0 8.32 0 9 C-0.66 8.67 -1.32 8.34 -2 8 C-2 6.68 -2 5.36 -2 4 C-1.34 4 -0.68 4 0 4 C0 2.68 0 1.36 0 0 Z " fill="#E7EDF1" transform="translate(81,24)"/>
<path d="M0 0 C0.66 0.33 1.32 0.66 2 1 C2 3.31 2 5.62 2 8 C1.01 8 0.02 8 -1 8 C-1.93065133 5.39417629 -2.14917407 4.35801776 -1.0625 1.75 C-0.711875 1.1725 -0.36125 0.595 0 0 Z " fill="#CAE1FB" transform="translate(88,24)"/>
<path d="M0 0 C6.15234375 0.5859375 6.15234375 0.5859375 8 1 C8.33 1.66 8.66 2.32 9 3 C5.62182575 3.84454356 3.32534757 4.10844919 0 3 C0 2.01 0 1.02 0 0 Z " fill="#9E9E9E" transform="translate(29,28)"/>
<path d="M0 0 C2 1.375 2 1.375 4 3 C4 3.66 4 4.32 4 5 C3.01 5.33 2.02 5.66 1 6 C-0.32 4.68 -1.64 3.36 -3 2 C-2.01 1.34 -1.02 0.68 0 0 Z " fill="#328BF9" transform="translate(9,31)"/>
</svg>
